<svg fill="none" xmlns="http://www.w3.org/2000/svg" viewBox="0 0 250 250"><g clip-path="url(#a)"><path d="M102.656 124.312h7.906c.38 0 .688-.307.688-.687v-10.313a.688.688 0 0 1 1.375 0v23.376a.688.688 0 0 1-1.375 0v-10.313a.687.687 0 0 0-.688-.687h-7.906c-11.96 0-21.656 9.695-21.656 21.656 0 10.465 7.423 19.197 17.292 21.216 1.41.288 2.869.44 4.364.44 11.961 0 21.656-9.696 21.656-21.656v-9.282a.688.688 0 0 1 1.376 0v9.282c0 11.96 9.695 21.656 21.656 21.656 11.96 0 21.656-9.696 21.656-21.656 0-11.961-9.696-21.656-21.656-21.656h-7.906a.687.687 0 0 0-.688.687v10.313a.688.688 0 0 1-1.375 0v-23.376a.688.688 0 0 1 1.375 0v10.313c0 .38.308.687.688.687h7.906c11.96 0 21.656-9.695 21.656-21.656 0-10.465-7.423-19.197-17.292-21.216a21.75 21.75 0 0 0-4.364-.44c-11.961 0-21.656 9.696-21.656 21.656v9.282a.688.688 0 0 1-1.376 0v-9.282c0-11.96-9.695-21.656-21.656-21.656a21.75 21.75 0 0 0-4.364.44C88.423 83.46 81 92.19 81 102.656c0 11.961 9.696 21.656 21.656 21.656Z" fill="#D0D2D9"/></g><defs><clipPath id="a"><path fill="#fff" transform="translate(81 81)" d="M0 0h88v88H0z"/></clipPath></defs></svg>