<svg width="93" height="93" viewBox="0 0 93 93" fill="none" xmlns="http://www.w3.org/2000/svg">
<rect width="93" height="93" rx="24" fill="black"/>
<path d="M24.7888 57.7471C28.3851 52.2585 33.4764 45.9886 39.5802 39.7738C45.684 33.5591 51.8419 28.3752 57.2326 24.7135C59.5252 25.8686 61.6743 27.4177 63.5826 29.3607C73.0118 38.9614 72.9931 54.5461 63.5409 64.1702C54.0886 73.7943 38.7822 73.8133 29.353 64.2127C27.4447 62.2696 25.9233 60.0814 24.7888 57.7471Z" fill="white"/>
<path d="M63.853 41.6745C60.7934 45.537 57.2498 49.5566 53.3256 53.5522C49.4392 57.5092 45.5297 61.0861 41.7699 64.1806C47.7952 65.642 54.3658 64.0076 59.0265 59.2622C63.6915 54.5123 65.2953 47.8141 63.853 41.6745Z" fill="black"/>
<path fill-rule="evenodd" clip-rule="evenodd" d="M53.4294 53.5554C59.5218 47.3523 64.6025 41.0931 68.1905 35.6129C73.2561 27.8758 75.346 21.6915 73.1057 19.4105C71.7186 17.9981 68.8616 18.2761 65.0828 19.9172C62.7491 20.9306 60.0638 22.464 57.1561 24.44C54.3163 23.0273 51.2605 22.216 48.1724 22.0064C41.4622 21.5507 34.5993 23.9351 29.4687 29.159C24.3381 34.3829 21.9962 41.3706 22.4437 48.2028C22.4908 48.9217 22.5688 49.639 22.6777 50.3523C23.0449 52.7584 23.7637 55.1196 24.834 57.3498C23.3068 59.6795 22.0488 61.8689 21.0971 63.854C20.8393 64.3917 20.604 64.9143 20.3919 65.4207C18.7801 69.2682 18.5071 72.1771 19.8943 73.5895C22.1345 75.8705 28.2083 73.7426 35.8074 68.5848C41.1896 64.9317 47.337 59.7585 53.4294 53.5554ZM66.2248 21.8702C66.2298 21.866 66.2294 21.9242 66.2087 22.057C66.2094 21.9407 66.2198 21.8743 66.2248 21.8702ZM22.31 66.5834C22.314 66.5783 22.3792 66.5677 22.4934 66.567C22.363 66.5881 22.3059 66.5885 22.31 66.5834ZM26.7752 71.1298C26.7702 71.134 26.7706 71.0758 26.7914 70.943C26.7906 71.0593 26.7802 71.1257 26.7752 71.1298ZM70.5066 26.433C70.637 26.4119 70.6941 26.4115 70.69 26.4166C70.686 26.4217 70.6208 26.4323 70.5066 26.433Z" fill="white"/>
<path d="M24.834 57.3498C23.7637 55.1196 23.0449 52.7584 22.6777 50.3523C22.9436 53.933 22.8185 59.4354 21.0971 63.854C22.0488 61.8689 23.3068 59.6795 24.834 57.3498Z" fill="white"/>
<path d="M48.1724 22.0064C51.2605 22.216 54.3163 23.0273 57.1561 24.44C60.0638 22.464 62.7491 20.9306 65.0828 19.9172C60.885 21.6988 52.0601 22.0523 48.1724 22.0064Z" fill="white"/>
<path d="M57.247 33.6789C59.6114 36.0862 59.2839 39.8975 57.205 42.564C55.2312 45.0958 52.9094 47.7495 50.3187 50.3873C47.7281 53.025 45.1217 55.3891 42.6351 57.3988C40.0162 59.5155 36.273 59.8489 33.9087 57.4416C27.4184 50.8333 27.3816 40.1569 33.8263 33.595C40.271 27.0331 50.7568 27.0707 57.247 33.6789Z" fill="black"/>
</svg>
