<svg width="73" height="73" viewBox="0 0 73 73" fill="none" xmlns="http://www.w3.org/2000/svg">
<path d="M7.68268 51.1601C12.4556 44.0058 19.2125 35.8333 27.3132 27.7326C35.4139 19.6319 43.5865 12.8749 50.7408 8.10201C53.7835 9.60766 56.6357 11.6268 59.1684 14.1595C71.6825 26.6736 71.6577 46.9877 59.113 59.5323C46.5683 72.077 26.2542 72.1018 13.7402 59.5877C11.2074 57.055 9.18834 54.2028 7.68268 51.1601Z" fill="black"/>
<path d="M59.5272 30.21C55.4667 35.2446 50.7637 40.4841 45.5556 45.6922C40.3978 50.85 35.2093 55.5124 30.2194 59.5459C38.2159 61.4507 46.9361 59.3204 53.1216 53.1349C59.3129 46.9436 61.4414 38.2128 59.5272 30.21Z" fill="white"/>
<path fill-rule="evenodd" clip-rule="evenodd" d="M45.6934 45.6963C53.779 37.6108 60.522 29.4522 65.2837 22.309C72.0067 12.2239 74.7803 4.16296 71.8071 1.18977C69.9661 -0.651231 66.1744 -0.288857 61.1594 1.85015C58.0622 3.17116 54.4984 5.1698 50.6393 7.74553C46.8705 5.90403 42.8149 4.84666 38.7165 4.57333C29.8109 3.97941 20.7028 7.0874 13.8936 13.8966C7.08448 20.7057 3.9765 29.8139 4.57041 38.7194C4.63291 39.6566 4.7364 40.5915 4.88089 41.5212C5.36829 44.6575 6.32218 47.7352 7.7426 50.6422C5.71578 53.6789 4.0463 56.5327 2.78314 59.1203C2.44104 59.821 2.12875 60.5023 1.84722 61.1623C-0.291787 66.1774 -0.65416 69.969 1.18684 71.81C4.16003 74.7832 12.221 72.0096 22.3061 65.2866C29.4492 60.5249 37.6079 53.7819 45.6934 45.6963ZM62.6749 4.39581C62.6816 4.39044 62.6811 4.46624 62.6535 4.6393C62.6545 4.48771 62.6683 4.40118 62.6749 4.39581ZM4.39288 62.6779C4.39825 62.6712 4.48478 62.6574 4.63636 62.6565C4.46331 62.684 4.38752 62.6845 4.39288 62.6779ZM10.319 68.604C10.3124 68.6094 10.3128 68.5336 10.3404 68.3605C10.3394 68.5121 10.3256 68.5986 10.319 68.604ZM68.3576 10.3433C68.5306 10.3158 68.6064 10.3153 68.6011 10.3219C68.5957 10.3286 68.5092 10.3424 68.3576 10.3433Z" fill="black"/>
<path d="M7.7426 50.6422C6.32218 47.7352 5.36829 44.6575 4.88089 41.5212C5.23381 46.1886 5.06777 53.3607 2.78314 59.1203C4.0463 56.5327 5.71578 53.6789 7.7426 50.6422Z" fill="black"/>
<path d="M38.7165 4.57333C42.8149 4.84666 46.8705 5.90403 50.6393 7.74553C54.4984 5.1698 58.0622 3.17116 61.1594 1.85015C55.5881 4.17242 43.8761 4.63321 38.7165 4.57333Z" fill="black"/>
<path d="M50.76 19.788C53.8979 22.9259 53.4633 27.8938 50.7043 31.3695C48.0847 34.6696 45.0032 38.1286 41.565 41.5668C38.1268 45.0051 34.6678 48.0865 31.3677 50.7061C27.892 53.4651 22.9241 53.8997 19.7862 50.7618C11.1726 42.1483 11.1237 28.2318 19.6769 19.6787C28.23 11.1255 42.1464 11.1745 50.76 19.788Z" fill="white"/>
</svg>
