<svg width="163" height="39" viewBox="0 0 163 39" fill="none" xmlns="http://www.w3.org/2000/svg">
<path fill-rule="evenodd" clip-rule="evenodd" d="M27.1192 5.85754C38.1357 5.85754 47.0665 4.54628 47.0665 2.92877C47.0665 1.31128 38.136 4.22366e-05 27.1197 0C27.1195 0 27.1193 0 27.1192 0C16.1026 0 7.17188 1.31125 7.17188 2.92877C7.17188 4.54628 16.1026 5.85754 27.1192 5.85754ZM27.1197 4.90767C36.9997 4.90767 45.0089 3.80905 45.0089 2.45383C45.0089 1.09862 36.9997 0 27.1197 0C17.2398 0 9.23047 1.09862 9.23047 2.45383C9.23047 3.80905 17.2398 4.90767 27.1197 4.90767Z" fill="url(#paint0_radial_1949_11352)"/>
<path fill-rule="evenodd" clip-rule="evenodd" d="M27.1192 33.1425C38.1357 33.1425 47.0665 34.4537 47.0665 36.0712C47.0665 37.6887 38.136 39 27.1197 39C27.1195 39 27.1193 39 27.1192 39C16.1026 39 7.17188 37.6887 7.17188 36.0712C7.17188 34.4537 16.1026 33.1425 27.1192 33.1425ZM27.1197 34.0923C36.9997 34.0923 45.0089 35.191 45.0089 36.5462C45.0089 37.9014 36.9997 39 27.1197 39C17.2398 39 9.23047 37.9014 9.23047 36.5462C9.23047 35.191 17.2398 34.0923 27.1197 34.0923Z" fill="url(#paint1_radial_1949_11352)"/>
<path fill-rule="evenodd" clip-rule="evenodd" d="M27.1209 13.9866C39.5364 13.9866 49.6012 12.5088 49.6012 10.6859C49.6012 8.86302 39.5364 7.38525 27.1209 7.38525C14.7054 7.38525 4.64062 8.86302 4.64062 10.6859C4.64062 12.5088 14.7054 13.9866 27.1209 13.9866ZM27.1212 12.9813C38.2253 12.9813 47.2268 11.741 47.2268 10.2109C47.2268 8.68081 38.2253 7.44043 27.1212 7.44043C16.0172 7.44043 7.01562 8.68081 7.01562 10.2109C7.01562 11.741 16.0172 12.9813 27.1212 12.9813Z" fill="url(#paint2_radial_1949_11352)"/>
<path fill-rule="evenodd" clip-rule="evenodd" d="M27.1213 25.0134C14.7058 25.0134 4.641 26.4912 4.641 28.3141C4.641 30.137 14.7058 31.6147 27.1213 31.6147C39.5368 31.6147 49.6016 30.137 49.6016 28.3141C49.6016 26.4912 39.5368 25.0134 27.1213 25.0134ZM27.121 26.0187C16.0169 26.0187 7.01535 27.259 7.01535 28.7891C7.01535 30.3192 16.0169 31.5596 27.121 31.5596C38.225 31.5596 47.2266 30.3192 47.2266 28.7891C47.2266 27.259 38.225 26.0187 27.121 26.0187Z" fill="url(#paint3_radial_1949_11352)"/>
<path fill-rule="evenodd" clip-rule="evenodd" d="M27.1184 23.4777C42.0955 23.4777 54.2368 21.6951 54.2368 19.4961C54.2368 17.2971 42.0955 15.5144 27.1184 15.5144C12.1413 15.5144 0 17.2971 0 19.4961C0 21.6951 12.1413 23.4777 27.1184 23.4777ZM27.5 22C41.031 22 52 20.6569 52 19C52 17.3431 41.031 16 27.5 16C13.969 16 3 17.3431 3 19C3 20.6569 13.969 22 27.5 22Z" fill="url(#paint4_radial_1949_11352)"/>
<path d="M71.2819 28.2745H69.043V10.2605H75.3221C78.9249 10.2605 81.2925 12.4222 81.2925 15.7934C81.2925 19.1646 78.9249 21.352 75.3221 21.352H71.2819V28.2745ZM71.2819 12.3192V19.2932H75.1163C77.4838 19.2932 79.0022 17.9293 79.0022 15.7934C79.0022 13.6574 77.5096 12.3192 75.142 12.3192H71.2819Z" fill="black"/>
<path d="M90.5856 28.4289C86.7512 28.4289 84.0748 25.7011 84.0748 21.7123C84.0748 17.7235 86.7512 14.9956 90.5856 14.9956C94.42 14.9956 97.0964 17.7235 97.0964 21.7123C97.0964 25.7011 94.42 28.4289 90.5856 28.4289ZM90.5856 26.5503C93.1848 26.5503 94.9347 24.5173 94.9347 21.7123C94.9347 18.9072 93.1848 16.8742 90.5856 16.8742C87.9864 16.8742 86.2365 18.9072 86.2365 21.7123C86.2365 24.5173 87.9864 26.5503 90.5856 26.5503Z" fill="black"/>
<path d="M112.669 17.2088H110.25C107.084 17.2088 106.132 19.5763 106.132 21.6608V26.3445H111.948V28.2745H100.779V26.3445H104.022V17.0801H100.779V15.15H106.081V17.4146C106.673 16.411 107.908 15.15 110.481 15.15H112.669V17.2088Z" fill="black"/>
<path d="M128.421 28.2745H123.815C121.293 28.2745 120.392 27.168 120.392 24.8519V17.0801H116.223V15.15H120.392V11.47H122.502V15.15H128.215V17.0801H122.502V24.8261C122.502 25.9327 122.888 26.3445 124.021 26.3445H128.421V28.2745Z" fill="black"/>
<path d="M144.302 26.3445H144.971V28.2745H143.813C142.063 28.2745 141.471 27.5282 141.446 26.2415C140.622 27.4253 139.31 28.4289 137.045 28.4289C134.163 28.4289 132.207 26.9878 132.207 24.5945C132.207 21.9696 134.034 20.5028 137.483 20.5028H141.343V19.6021C141.343 17.9036 140.133 16.8742 138.074 16.8742C136.222 16.8742 134.986 17.7492 134.729 19.0874H132.619C132.928 16.5139 135.012 14.9956 138.177 14.9956C141.523 14.9956 143.453 16.6683 143.453 19.7307V25.4695C143.453 26.1643 143.71 26.3445 144.302 26.3445ZM141.343 22.9218V22.2784H137.277C135.398 22.2784 134.343 22.9733 134.343 24.4658C134.343 25.7526 135.45 26.6275 137.2 26.6275C139.824 26.6275 141.343 25.1092 141.343 22.9218Z" fill="black"/>
<path d="M155.654 26.3445H160.286V28.2745H148.912V26.3445H153.544V12.1906H148.912V10.2605H155.654V26.3445Z" fill="black"/>
<defs>
<radialGradient id="paint0_radial_1949_11352" cx="0" cy="0" r="1" gradientUnits="userSpaceOnUse" gradientTransform="translate(27.1192 2.92877) rotate(6.42185) scale(18.4005 125.322)">
<stop/>
<stop offset="1" stop-opacity="0"/>
</radialGradient>
<radialGradient id="paint1_radial_1949_11352" cx="0" cy="0" r="1" gradientUnits="userSpaceOnUse" gradientTransform="translate(27.1192 36.0712) rotate(-6.42185) scale(18.4005 125.322)">
<stop/>
<stop offset="1" stop-opacity="0"/>
</radialGradient>
<radialGradient id="paint2_radial_1949_11352" cx="0" cy="0" r="1" gradientUnits="userSpaceOnUse" gradientTransform="translate(4.64063 10.6859) scale(48.2851 328.861)">
<stop/>
<stop offset="0.52641" stop-opacity="0"/>
<stop offset="1" stop-opacity="0.1"/>
</radialGradient>
<radialGradient id="paint3_radial_1949_11352" cx="0" cy="0" r="1" gradientUnits="userSpaceOnUse" gradientTransform="translate(49.6016 28.3141) rotate(180) scale(48.2851 328.861)">
<stop/>
<stop offset="0.52641" stop-opacity="0"/>
<stop offset="1" stop-opacity="0.1"/>
</radialGradient>
<radialGradient id="paint4_radial_1949_11352" cx="0" cy="0" r="1" gradientUnits="userSpaceOnUse" gradientTransform="translate(5.674e-08 19.4961) scale(58.2472 396.711)">
<stop stop-opacity="0"/>
<stop offset="0.462688"/>
<stop offset="1" stop-opacity="0.1"/>
</radialGradient>
</defs>
</svg>
