<?xml version="1.0" standalone="no"?>
<!DOCTYPE svg PUBLIC "-//W3C//DTD SVG 20010904//EN"
 "http://www.w3.org/TR/2001/REC-SVG-20010904/DTD/svg10.dtd">
<svg version="1.0" xmlns="http://www.w3.org/2000/svg"
 width="700.000000pt" height="700.000000pt" viewBox="0 0 700.000000 700.000000"
 preserveAspectRatio="xMidYMid meet">
<metadata>
Created by potrace 1.14, written by Peter Selinger 2001-2017
</metadata>
<g transform="translate(0.000000,700.000000) scale(0.100000,-0.100000)"
fill="#000000" stroke="none">
<path d="M3479 6126 c-6 -5 -112 -17 -194 -21 -135 -8 -230 -15 -260 -21 -63
-11 -220 -56 -270 -79 -48 -21 -71 -28 -130 -39 -77 -15 -216 -75 -290 -126
-22 -15 -73 -41 -113 -58 -89 -38 -170 -91 -225 -147 -23 -24 -66 -56 -94 -72
-29 -16 -72 -46 -97 -67 -46 -38 -156 -174 -156 -193 0 -5 -22 -24 -48 -41
-65 -42 -158 -135 -199 -200 -33 -52 -77 -155 -88 -206 -3 -14 -7 -38 -11 -53
-3 -16 -33 -57 -68 -93 -99 -102 -132 -154 -173 -265 -44 -121 -50 -286 -18
-444 13 -60 13 -64 -7 -85 -115 -121 -170 -317 -134 -481 3 -17 8 -40 10 -51
8 -43 69 -175 107 -234 21 -33 39 -63 39 -65 0 -3 7 -13 15 -22 9 -10 36 -43
60 -73 l43 -54 -45 -51 c-91 -100 -111 -207 -59 -320 45 -99 197 -227 386
-326 36 -19 67 -36 70 -39 3 -3 31 -18 63 -34 31 -16 57 -32 57 -36 0 -3 -15
-14 -32 -23 -103 -53 -180 -116 -191 -156 -11 -43 30 -70 330 -218 161 -79
293 -145 293 -147 0 -2 -35 -18 -77 -36 -79 -34 -113 -56 -113 -72 0 -8 59
-38 240 -121 346 -158 339 -154 333 -177 -10 -39 39 -75 172 -125 104 -39 221
-70 305 -81 25 -3 74 -14 110 -24 36 -11 76 -21 90 -24 14 -3 35 -7 48 -10 95
-21 200 -28 345 -23 89 3 180 8 202 11 22 3 87 7 145 10 58 3 116 8 130 11 14
3 39 8 55 10 64 12 181 47 247 75 39 17 78 30 88 30 54 0 271 89 342 141 21
15 68 39 105 54 76 30 137 69 209 134 28 25 79 62 114 81 81 45 188 149 230
222 17 32 46 68 63 80 62 41 174 164 210 229 40 72 76 164 84 218 4 24 23 52
71 101 82 83 125 153 165 267 28 80 31 101 33 233 2 96 -2 167 -11 209 l-14
64 37 46 c141 173 166 388 71 616 -28 69 -125 226 -166 270 -10 11 -28 33 -41
49 l-22 29 39 40 c68 70 96 131 96 212 0 88 -24 140 -101 218 -48 48 -198 160
-259 193 -41 22 -70 39 -75 45 -3 3 -40 25 -83 48 -64 35 -76 45 -66 57 6 8
17 14 25 14 7 0 19 6 26 13 7 6 33 25 57 42 90 61 115 127 63 164 -16 11 -153
81 -305 156 -251 124 -307 155 -279 155 26 0 182 74 182 86 0 20 -29 36 -211
120 -165 76 -193 89 -306 139 -53 23 -61 30 -53 45 7 13 3 23 -18 43 -25 23
-120 81 -132 80 -3 0 -16 4 -30 9 -61 24 -153 49 -255 68 -60 12 -135 29 -165
38 -30 9 -61 17 -69 18 -7 1 -34 7 -60 13 -25 6 -62 13 -81 16 -40 7 -306 16
-311 11z"/>
</g>
</svg>
